<svg xmlns="http://www.w3.org/2000/svg" xmlns:xlink="http://www.w3.org/1999/xlink" width="1040" height="494.2"><rect width="1040" height="494.2" rx="5" ry="5" class="a"/><svg y="0%" x="0%"><circle cx="20" cy="20" r="6" fill="#ff5f58"/><circle cx="40" cy="20" r="6" fill="#ffbd2e"/><circle cx="60" cy="20" r="6" fill="#18c132"/></svg><svg height="434.2" viewBox="0 0 100 43.42" width="1000" x="15" xmlns="http://www.w3.org/2000/svg" xmlns:xlink="http://www.w3.org/1999/xlink" y="50"><style>@keyframes t{0%{transform:translateX(0)}6.1%{transform:translateX(-200px)}8.9%{transform:translateX(-500px)}9%{transform:translateX(-600px)}14.1%{transform:translateX(-700px)}15.6%{transform:translateX(-800px)}17.8%{transform:translateX(-900px)}20.7%{transform:translateX(-1000px)}22.3%{transform:translateX(-1400px)}22.4%{transform:translateX(-1600px)}26.6%{transform:translateX(-1900px)}28.9%{transform:translateX(-2000px)}30.7%{transform:translateX(-2100px)}33.7%{transform:translateX(-2200px)}37.8%{transform:translateX(-2500px)}40.3%{transform:translateX(-2600px)}45.4%{transform:translateX(-2700px)}48.5%{transform:translateX(-2800px)}50.2%{transform:translateX(-3300px)}55.3%{transform:translateX(-3400px)}55.9%{transform:translateX(-3500px)}57.8%{transform:translateX(-3600px)}62.4%{transform:translateX(-4100px)}66.6%{transform:translateX(-4200px)}69.8%{transform:translateX(-4300px)}71.7%{transform:translateX(-4500px)}71.8%{transform:translateX(-4800px)}76.9%{transform:translateX(-4900px)}79.1%{transform:translateX(-5000px)}81%{transform:translateX(-5100px)}85.7%{transform:translateX(-5300px)}86.7%{transform:translateX(-5400px)}to{transform:translateX(-5500px)}}.a{fill:#000}.f,.g{fill:#28fe14;white-space:pre}.g{fill:#25bc24}.h,.i{font-weight:700}.h{fill:#31e722;white-space:pre}.i{fill:#008700}.i,.j,.k,.m{white-space:pre}.j{fill:#492ee1;font-weight:700}.k,.m{fill:#5f8787}.m{fill:#008700}.n{fill:#adad27}.n,.p,.v{white-space:pre}.p{fill:#af5f87;font-weight:700}.v{fill:#626262}.w{fill:#afd7d7}.x{fill:#000;white-space:pre}</style><g font-family="Monaco,Consolas,Menlo,'Bitstream Vera Sans Mono','Powerline Symbols',monospace" font-size="1.67"><defs><symbol id="1"><text y="1.67" class="f">Python</text><text x="7.014" y="1.67" class="f">3.9.13</text><text x="14.028" y="1.67" class="f">(main,</text><text x="21.042" y="1.67" class="f">May</text><text x="25.05" y="1.67" class="f">24</text><text x="28.056" y="1.67" class="f">2022,</text><text x="34.068" y="1.67" class="f">21:28:44)</text></symbol><symbol id="2"><text y="1.67" class="f">Type</text><text x="5.01" y="1.67" class="f">&apos;copyright&apos;,</text><text x="18.036" y="1.67" class="f">&apos;credits&apos;</text><text x="28.056" y="1.67" class="f">or</text><text x="31.062" y="1.67" class="f">&apos;license&apos;</text><text x="41.082" y="1.67" class="f">for</text><text x="45.09" y="1.67" class="f">more</text><text x="50.1" y="1.67" class="f">information</text></symbol><symbol id="3"><text y="1.67" class="f">IPython</text><text x="8.016" y="1.67" class="f">8.4.0</text><text x="14.028" y="1.67" class="f">--</text><text x="17.034" y="1.67" class="f">An</text><text x="20.04" y="1.67" class="f">enhanced</text><text x="29.058" y="1.67" class="f">Interactive</text><text x="41.082" y="1.67" class="f">Python.</text><text x="49.098" y="1.67" class="f">Type</text><text x="54.108" y="1.67" class="f">&apos;?&apos;</text><text x="58.116" y="1.67" class="f">for</text><text x="62.124" y="1.67" class="f">help.</text></symbol><symbol id="4"><text y="1.67" class="g">In</text><text x="3.006" y="1.67" class="g">[</text><text x="4.008" y="1.67" class="h">1</text><text x="5.01" y="1.67" class="g">]:</text><text x="8.016" y="1.67" class="f">!pip</text><text x="13.026" y="1.67" class="f">install</text><text x="21.042" y="1.67" class="f">--upgrade</text><text x="31.062" y="1.67" class="f">natun-labsdk</text></symbol><symbol id="5"><text y="1.67" class="f">Requirement</text><text x="12.024" y="1.67" class="f">already</text><text x="20.04" y="1.67" class="f">satisfied:</text><text x="31.062" y="1.67" class="f">natun-labsdk</text><text x="44.088" y="1.67" class="f">in</text><text x="47.094" y="1.67" class="f">/usr/local/lib/python3.9/site-packages</text><text x="86.172" y="1.67" class="f">(0.0.9a2)</text></symbol><symbol id="6"><text y="1.67" class="f">Requirement</text><text x="12.024" y="1.67" class="f">already</text><text x="20.04" y="1.67" class="f">satisfied:</text><text x="31.062" y="1.67" class="f">pandas</text><text x="38.076" y="1.67" class="f">in</text><text x="41.082" y="1.67" class="f">/usr/local/lib/python3.9/site-packages</text><text x="80.16" y="1.67" class="f">(from</text><text x="86.172" y="1.67" class="f">natun-labsdk)</text></symbol><symbol id="7"><text y="1.67" class="f">(1.4.2)</text></symbol><symbol id="8"><text y="1.67" class="f">Requirement</text><text x="12.024" y="1.67" class="f">already</text><text x="20.04" y="1.67" class="f">satisfied:</text><text x="31.062" y="1.67" class="f">astunparse</text><text x="42.084" y="1.67" class="f">in</text><text x="45.09" y="1.67" class="f">/usr/local/lib/python3.9/site-packages</text><text x="84.168" y="1.67" class="f">(from</text><text x="90.18" y="1.67" class="f">natun-labs</text></symbol><symbol id="9"><text y="1.67" class="f">dk)</text><text x="4.008" y="1.67" class="f">(1.6.3)</text></symbol><symbol id="10"><text y="1.67" class="f">Requirement</text><text x="12.024" y="1.67" class="f">already</text><text x="20.04" y="1.67" class="f">satisfied:</text><text x="31.062" y="1.67" class="f">wheel&lt;1.0,&gt;=0.23.0</text><text x="50.1" y="1.67" class="f">in</text><text x="53.106" y="1.67" class="f">/usr/local/lib/python3.9/site-packages</text><text x="92.184" y="1.67" class="f">(from</text><text x="98.196" y="1.67" class="f">as</text></symbol><symbol id="11"><text y="1.67" class="f">tunparse-&gt;natun-labsdk)</text><text x="24.048" y="1.67" class="f">(0.37.1)</text></symbol><symbol id="12"><text y="1.67" class="f">Requirement</text><text x="12.024" y="1.67" class="f">already</text><text x="20.04" y="1.67" class="f">satisfied:</text><text x="31.062" y="1.67" class="f">six&lt;2.0,&gt;=1.6.1</text><text x="47.094" y="1.67" class="f">in</text><text x="50.1" y="1.67" class="f">/usr/local/lib/python3.9/site-packages</text><text x="89.178" y="1.67" class="f">(from</text><text x="95.19" y="1.67" class="f">astun</text></symbol><symbol id="13"><text y="1.67" class="f">parse-&gt;natun-labsdk)</text><text x="21.042" y="1.67" class="f">(1.16.0)</text></symbol><symbol id="14"><text y="1.67" class="f">Requirement</text><text x="12.024" y="1.67" class="f">already</text><text x="20.04" y="1.67" class="f">satisfied:</text><text x="31.062" y="1.67" class="f">numpy&gt;=1.18.5</text><text x="45.09" y="1.67" class="f">in</text><text x="48.096" y="1.67" class="f">/usr/local/lib/python3.9/site-packages</text><text x="87.174" y="1.67" class="f">(from</text><text x="93.186" y="1.67" class="f">pandas-</text></symbol><symbol id="15"><text y="1.67" class="f">&gt;natun-labsdk)</text><text x="15.03" y="1.67" class="f">(1.22.4)</text></symbol><symbol id="16"><text y="1.67" class="f">Requirement</text><text x="12.024" y="1.67" class="f">already</text><text x="20.04" y="1.67" class="f">satisfied:</text><text x="31.062" y="1.67" class="f">python-dateutil&gt;=2.8.1</text><text x="54.108" y="1.67" class="f">in</text><text x="57.114" y="1.67" class="f">/usr/local/lib/python3.9/site-packages</text><text x="96.192" y="1.67" class="f">(fro</text></symbol><symbol id="17"><text y="1.67" class="f">m</text><text x="2.004" y="1.67" class="f">pandas-&gt;natun-labsdk)</text><text x="24.048" y="1.67" class="f">(2.8.2)</text></symbol><symbol id="18"><text y="1.67" class="f">Requirement</text><text x="12.024" y="1.67" class="f">already</text><text x="20.04" y="1.67" class="f">satisfied:</text><text x="31.062" y="1.67" class="f">pytz&gt;=2020.1</text><text x="44.088" y="1.67" class="f">in</text><text x="47.094" y="1.67" class="f">/usr/local/lib/python3.9/site-packages</text><text x="86.172" y="1.67" class="f">(from</text><text x="92.184" y="1.67" class="f">pandas-&gt;</text></symbol><symbol id="19"><text y="1.67" class="f">natun-labsdk)</text><text x="14.028" y="1.67" class="f">(2022.1)</text></symbol><symbol id="20"><text y="1.67" class="g">In</text><text x="3.006" y="1.67" class="g">[</text><text x="4.008" y="1.67" class="h">2</text><text x="5.01" y="1.67" class="g">]:</text></symbol><symbol id="21"><text y="1.67" class="g">In</text><text x="3.006" y="1.67" class="g">[</text><text x="4.008" y="1.67" class="h">2</text><text x="5.01" y="1.67" class="g">]:</text><text x="8.016" y="1.67" class="i">import</text><text x="15.03" y="1.67" class="j">natun</text></symbol><symbol id="22"><text x="3.006" y="1.67" class="g">...:</text><text x="8.016" y="1.67" class="i">from</text><text x="13.026" y="1.67" class="j">natun.stub</text><text x="24.048" y="1.67" class="i">import</text><text x="31.062" y="1.67" class="f">*</text><text x="34.068" y="1.67" class="k">#&lt;--</text><text x="39.078" y="1.67" class="k">this</text><text x="44.088" y="1.67" class="k">is</text><text x="47.094" y="1.67" class="k">prevent</text><text x="55.11" y="1.67" class="k">the</text><text x="59.118" y="1.67" class="k">IDE/Notebookfrom</text><text x="76.152" y="1.67" class="k">detecting</text><text x="86.172" y="1.67" class="k">PyExp</text><text x="92.184" y="1.67" class="k">built-is</text></symbol><symbol id="23"><text y="1.67" class="g">In</text><text x="3.006" y="1.67" class="g">[</text><text x="4.008" y="1.67" class="h">3</text><text x="5.01" y="1.67" class="g">]:</text></symbol><symbol id="24"><text y="1.67" class="g">In</text><text x="3.006" y="1.67" class="g">[</text><text x="4.008" y="1.67" class="h">3</text><text x="5.01" y="1.67" class="g">]:</text><text x="8.016" y="1.67" style="white-space:pre" fill="#af00ff">@natun</text><text x="14.028" y="1.67" class="f">.register(</text><text x="24.048" y="1.67" class="m">str</text><text x="27.054" y="1.67" class="f">,</text><text x="29.058" y="1.67" class="f">freshness=</text><text x="39.078" y="1.67" class="n">&apos;1m&apos;</text><text x="43.086" y="1.67" class="f">,</text><text x="45.09" y="1.67" class="f">staleness=</text><text x="55.11" y="1.67" class="n">&apos;10m&apos;</text><text x="60.12" y="1.67" class="f">)</text></symbol><symbol id="25"><text x="3.006" y="1.67" class="g">...:</text><text x="8.016" y="1.67" class="i">def</text><text x="12.024" y="1.67" style="white-space:pre" fill="#492ee1">hello_world</text><text x="23.046" y="1.67" class="f">(**req):</text></symbol><symbol id="26"><text x="3.006" y="1.67" class="g">...:</text><text x="12.024" y="1.67" class="i">return</text><text x="19.038" y="1.67" class="n">&quot;Hello,</text><text x="27.054" y="1.67" class="p">{}</text><text x="29.058" y="1.67" class="n">!&quot;</text><text x="31.062" y="1.67" class="f">.format(req[</text><text x="43.086" y="1.67" class="n">&apos;entity_id&apos;</text><text x="54.108" y="1.67" class="f">])</text></symbol><symbol id="27"><text x="3.006" y="1.67" class="g">...:</text></symbol><symbol id="28"><text y="1.67" class="g">In</text><text x="3.006" y="1.67" class="g">[</text><text x="4.008" y="1.67" class="h">4</text><text x="5.01" y="1.67" class="g">]:</text></symbol><symbol id="29"><text y="1.67" class="g">In</text><text x="3.006" y="1.67" class="g">[</text><text x="4.008" y="1.67" class="h">4</text><text x="5.01" y="1.67" class="g">]:</text><text x="8.016" y="1.67" class="f">manifest</text><text x="17.034" y="1.67" class="f">=</text><text x="19.038" y="1.67" class="f">hello_world.manifest()</text></symbol><symbol id="30"><text y="1.67" class="g">In</text><text x="3.006" y="1.67" class="g">[</text><text x="4.008" y="1.67" class="h">5</text><text x="5.01" y="1.67" class="g">]:</text></symbol><symbol id="31"><text y="1.67" class="g">In</text><text x="3.006" y="1.67" class="g">[</text><text x="4.008" y="1.67" class="h">5</text><text x="5.01" y="1.67" class="g">]:</text><text x="8.016" y="1.67" class="m">print</text><text x="13.026" y="1.67" class="f">(manifest)</text></symbol><symbol id="32"><text y="1.67" class="f">apiVersion:</text><text x="12.024" y="1.67" class="f">k8s.natun.ai/v1alpha1</text></symbol><symbol id="33"><text y="1.67" class="f">kind:</text><text x="6.012" y="1.67" class="f">Feature</text></symbol><symbol id="34"><text y="1.67" class="f">metadata:</text></symbol><symbol id="35"><text x="2.004" y="1.67" class="f">name:</text><text x="8.016" y="1.67" class="f">hello-world</text></symbol><symbol id="36"><text x="2.004" y="1.67" class="f">namespace:</text><text x="13.026" y="1.67" class="f">default</text></symbol><symbol id="37"><text y="1.67" class="f">spec:</text></symbol><symbol id="38"><text x="2.004" y="1.67" class="f">primitive:</text><text x="13.026" y="1.67" class="f">string</text></symbol><symbol id="39"><text x="2.004" y="1.67" class="f">freshness:</text><text x="13.026" y="1.67" class="f">1m</text></symbol><symbol id="40"><text x="2.004" y="1.67" class="f">staleness:</text><text x="13.026" y="1.67" class="f">10m</text></symbol><symbol id="41"><text x="2.004" y="1.67" class="f">builder:</text></symbol><symbol id="42"><text x="4.008" y="1.67" class="f">kind:</text><text x="10.02" y="1.67" class="f">expression</text></symbol><symbol id="43"><text x="4.008" y="1.67" class="f">pyexp:</text><text x="11.022" y="1.67" class="f">|</text></symbol><symbol id="44"><text x="6.012" y="1.67" class="f">def</text><text x="10.02" y="1.67" class="f">hello_world(**req):</text></symbol><symbol id="45"><text x="10.02" y="1.67" class="f">return</text><text x="17.034" y="1.67" class="f">&apos;Hello,</text><text x="25.05" y="1.67" class="f">{}!&apos;.format(req[&apos;entity_id&apos;])</text></symbol><symbol id="46"><text y="1.67" class="g">In</text><text x="3.006" y="1.67" class="g">[</text><text x="4.008" y="1.67" class="h">6</text><text x="5.01" y="1.67" class="g">]:</text></symbol><symbol id="47"><text y="1.67" class="g">In</text><text x="3.006" y="1.67" class="g">[</text><text x="4.008" y="1.67" class="h">6</text><text x="5.01" y="1.67" class="g">]:</text><text x="8.016" y="1.67" class="f">!echo</text><text x="14.028" y="1.67" class="n">&quot;</text><text x="15.03" y="1.67" style="white-space:pre" fill="#000087">$manifest</text><text x="24.048" y="1.67" class="n">&quot;</text><text x="26.052" y="1.67" class="f">|</text><text x="28.056" y="1.67" class="f">kubectl</text><text x="36.072" y="1.67" class="f">apply</text><text x="42.084" y="1.67" class="f">-f</text><text x="45.09" y="1.67" class="f">-</text></symbol><symbol id="48"><text y="1.67" class="f">feature.k8s.natun.ai/hello-world</text><text x="33.066" y="1.67" class="f">created</text></symbol><symbol id="a"><path fill="transparent" d="M0 0h100v21H0z"/></symbol><symbol id="b"><path fill="#38fe27" d="M0 0h1.102v2.171H0z"/></symbol></defs><path class="a" d="M0 0h100v43.42H0z"/><g style="animation-duration:15.090091s;animation-iteration-count:infinite;animation-name:t;animation-timing-function:steps(1,end)"><svg width="5600"><svg><use xlink:href="#a"/><use xlink:href="#b" x="-.004"/></svg><svg x="100"><use xlink:href="#a"/><use xlink:href="#b" x="-.004" y="2.146"/></svg><svg x="200"><use xlink:href="#a"/><use xlink:href="#b" x="-.004" y="2.146"/></svg><svg x="300"><use xlink:href="#a"/><use xlink:href="#b" x="-.004" y="8.659"/><use xlink:href="#1" y="2.171"/><use xlink:href="#2" y="4.342"/><use xlink:href="#3" y="6.513"/></svg><svg x="400"><use xlink:href="#a"/><use xlink:href="#b" x="-.004" y="10.83"/><use xlink:href="#1" y="2.171"/><use xlink:href="#2" y="4.342"/><use xlink:href="#3" y="6.513"/></svg><svg x="500"><use xlink:href="#a"/><use xlink:href="#b" x="7.996" y="10.83"/><use xlink:href="#1" y="2.171"/><use xlink:href="#2" y="4.342"/><use xlink:href="#3" y="6.513"/><text y="12.525" class="g">In</text><text x="3.006" y="12.525" class="g">[</text><text x="4.008" y="12.525" class="h">1</text><text x="5.01" y="12.525" class="g">]:</text></svg><svg x="600"><use xlink:href="#a"/><use xlink:href="#b" x="7.996"/></svg><svg x="700"><use xlink:href="#a"/><use xlink:href="#b" x="8.996"/><text x="8.016" y="1.67" class="f">!</text><text x="9.018" y="1.67" class="v">pip</text><text x="13.026" y="1.67" class="v">install</text><text x="21.042" y="1.67" class="v">--upgrade</text><text x="31.062" y="1.67" class="v">natun-labsdk</text></svg><svg x="800"><use xlink:href="#a"/><use xlink:href="#b" x="42.996"/><text x="8.016" y="1.67" class="f">!pip</text><text x="13.026" y="1.67" class="f">install</text><text x="21.042" y="1.67" class="f">--upgrade</text><text x="31.062" y="1.67" class="f">natun-labsdk</text></svg><svg x="900"><use xlink:href="#a"/><use xlink:href="#b" x="-.004" y="2.146"/><use xlink:href="#4"/></svg><svg x="1000"><use xlink:href="#a"/><use xlink:href="#b" x="-.004" y="4.317"/><use xlink:href="#4"/><use xlink:href="#5" y="2.171"/></svg><svg x="1100"><use xlink:href="#a"/><use xlink:href="#b" x="-.004" y="8.659"/><use xlink:href="#4"/><use xlink:href="#5" y="2.171"/><use xlink:href="#6" y="4.342"/><use xlink:href="#7" y="6.513"/></svg><svg x="1200"><use xlink:href="#a"/><use xlink:href="#b" x="-.004" y="13.001"/><use xlink:href="#4"/><use xlink:href="#5" y="2.171"/><use xlink:href="#6" y="4.342"/><use xlink:href="#7" y="6.513"/><use xlink:href="#8" y="8.684"/><use xlink:href="#9" y="10.855"/></svg><svg x="1300"><use xlink:href="#a"/><use xlink:href="#b" x="-.004" y="17.343"/><use xlink:href="#4"/><use xlink:href="#5" y="2.171"/><use xlink:href="#6" y="4.342"/><use xlink:href="#7" y="6.513"/><use xlink:href="#8" y="8.684"/><use xlink:href="#9" y="10.855"/><use xlink:href="#10" y="13.026"/><use xlink:href="#11" y="15.197"/></svg><svg x="1400"><use xlink:href="#a"/><use xlink:href="#b" x="-.004" y="21.685"/><use xlink:href="#4"/><use xlink:href="#5" y="2.171"/><use xlink:href="#6" y="4.342"/><use xlink:href="#7" y="6.513"/><use xlink:href="#8" y="8.684"/><use xlink:href="#9" y="10.855"/><use xlink:href="#10" y="13.026"/><use xlink:href="#11" y="15.197"/><use xlink:href="#12" y="17.368"/><use xlink:href="#13" y="19.539"/></svg><svg x="1500"><use xlink:href="#a"/><use xlink:href="#b" x="-.004" y="26.027"/><use xlink:href="#4"/><use xlink:href="#5" y="2.171"/><use xlink:href="#6" y="4.342"/><use xlink:href="#7" y="6.513"/><use xlink:href="#8" y="8.684"/><use xlink:href="#9" y="10.855"/><use xlink:href="#10" y="13.026"/><use xlink:href="#11" y="15.197"/><use xlink:href="#12" y="17.368"/><use xlink:href="#13" y="19.539"/><use xlink:href="#14" y="21.71"/><use xlink:href="#15" y="23.881"/></svg><svg x="1600"><use xlink:href="#a"/><use xlink:href="#b" x="-.004" y="34.711"/><use xlink:href="#4"/><use xlink:href="#5" y="2.171"/><use xlink:href="#6" y="4.342"/><use xlink:href="#7" y="6.513"/><use xlink:href="#8" y="8.684"/><use xlink:href="#9" y="10.855"/><use xlink:href="#10" y="13.026"/><use xlink:href="#11" y="15.197"/><use xlink:href="#12" y="17.368"/><use xlink:href="#13" y="19.539"/><use xlink:href="#14" y="21.71"/><use xlink:href="#15" y="23.881"/><use xlink:href="#16" y="26.052"/><use xlink:href="#17" y="28.223"/><use xlink:href="#18" y="30.394"/><use xlink:href="#19" y="32.565"/></svg><svg x="1700"><use xlink:href="#a"/><use xlink:href="#b" x="-.004" y="36.882"/><use xlink:href="#4"/><use xlink:href="#5" y="2.171"/><use xlink:href="#6" y="4.342"/><use xlink:href="#7" y="6.513"/><use xlink:href="#8" y="8.684"/><use xlink:href="#9" y="10.855"/><use xlink:href="#10" y="13.026"/><use xlink:href="#11" y="15.197"/><use xlink:href="#12" y="17.368"/><use xlink:href="#13" y="19.539"/><use xlink:href="#14" y="21.71"/><use xlink:href="#15" y="23.881"/><use xlink:href="#16" y="26.052"/><use xlink:href="#17" y="28.223"/><use xlink:href="#18" y="30.394"/><use xlink:href="#19" y="32.565"/></svg><svg x="1800"><use xlink:href="#a"/><use xlink:href="#b" x="7.996" y="36.882"/><use xlink:href="#4"/><use xlink:href="#5" y="2.171"/><use xlink:href="#6" y="4.342"/><use xlink:href="#7" y="6.513"/><use xlink:href="#8" y="8.684"/><use xlink:href="#9" y="10.855"/><use xlink:href="#10" y="13.026"/><use xlink:href="#11" y="15.197"/><use xlink:href="#12" y="17.368"/><use xlink:href="#13" y="19.539"/><use xlink:href="#14" y="21.71"/><use xlink:href="#15" y="23.881"/><use xlink:href="#16" y="26.052"/><use xlink:href="#17" y="28.223"/><use xlink:href="#18" y="30.394"/><use xlink:href="#19" y="32.565"/><use xlink:href="#20" y="36.907"/></svg><svg x="1900"><use xlink:href="#a"/><use xlink:href="#b" x="7.996" y="2.146"/><use xlink:href="#20" y="2.171"/></svg><svg x="2000"><use xlink:href="#a"/><use xlink:href="#b" x="8.996" y="2.146"/><text y="3.841" class="g">In</text><text x="3.006" y="3.841" class="g">[</text><text x="4.008" y="3.841" class="h">2</text><text x="5.01" y="3.841" class="g">]:</text><text x="8.016" y="3.841" class="f">i</text><text x="9.018" y="3.841" class="v">mport</text><text x="15.03" y="3.841" class="v">natun</text></svg><svg x="2100"><use xlink:href="#a"/><use xlink:href="#b" x="98.996" y="4.317"/><use xlink:href="#21" y="2.171"/><use xlink:href="#22" y="4.342"/></svg><svg x="2200"><use xlink:href="#a"/><use xlink:href="#b" x="-.004" y="6.488"/><use xlink:href="#21" y="2.171"/><use xlink:href="#22" y="4.342"/></svg><svg x="2300"><use xlink:href="#a"/><use xlink:href="#b" x="-.004" y="8.659"/><use xlink:href="#21" y="2.171"/><use xlink:href="#22" y="4.342"/></svg><svg x="2400"><use xlink:href="#a"/><use xlink:href="#b" x="7.996" y="8.659"/><use xlink:href="#21" y="2.171"/><use xlink:href="#22" y="4.342"/><use xlink:href="#23" y="8.684"/></svg><svg x="2500"><use xlink:href="#a"/><use xlink:href="#b" x="7.996" y="8.659"/><use xlink:href="#21" y="2.171"/><use xlink:href="#22" y="4.342"/><use xlink:href="#23" y="8.684"/></svg><svg x="2600"><use xlink:href="#a"/><use xlink:href="#b" x="8.996" y="8.659"/><use xlink:href="#21" y="2.171"/><use xlink:href="#22" y="4.342"/><text y="10.354" class="g">In</text><text x="3.006" y="10.354" class="g">[</text><text x="4.008" y="10.354" class="h">3</text><text x="5.01" y="10.354" class="g">]:</text><text x="8.016" y="10.354" class="f">@</text><text x="9.018" y="10.354" class="v">natun.register(str,</text><text x="29.058" y="10.354" class="v">freshness=&apos;1m&apos;,</text><text x="45.09" y="10.354" class="v">staleness=&apos;10m&apos;)</text></svg><svg x="2700"><use xlink:href="#a"/><use xlink:href="#b" x="55.996" y="13.001"/><use xlink:href="#21" y="2.171"/><use xlink:href="#22" y="4.342"/><use xlink:href="#24" y="8.684"/><use xlink:href="#25" y="10.855"/><text x="3.006" y="14.696" class="g">...:</text><text x="12.024" y="14.696" class="i">return</text><text x="19.038" y="14.696" class="n">&quot;Hello,</text><text x="27.054" y="14.696" class="p">{}</text><text x="29.058" y="14.696" class="n">!&quot;</text><text x="31.062" y="14.696" class="f">.format</text><path class="w" d="M38.076 13.026h1v2.171h-1z"/><text x="38.076" y="14.696" class="x">(</text><text x="39.078" y="14.696" class="f">req[</text><text x="43.086" y="14.696" class="n">&apos;entity_id&apos;</text><text x="54.108" y="14.696" class="f">]</text><path class="w" d="M55.11 13.026h1v2.171h-1z"/><text x="55.11" y="14.696" class="x">)</text></svg><svg x="2800"><use xlink:href="#a"/><use xlink:href="#b" x="11.996" y="15.172"/><use xlink:href="#21" y="2.171"/><use xlink:href="#22" y="4.342"/><use xlink:href="#24" y="8.684"/><use xlink:href="#25" y="10.855"/><use xlink:href="#26" y="13.026"/><use xlink:href="#27" y="15.197"/></svg><svg x="2900"><use xlink:href="#a"/><use xlink:href="#b" x="-.004" y="17.343"/><use xlink:href="#21" y="2.171"/><use xlink:href="#22" y="4.342"/><use xlink:href="#24" y="8.684"/><use xlink:href="#25" y="10.855"/><use xlink:href="#26" y="13.026"/><use xlink:href="#27" y="15.197"/></svg><svg x="3000"><use xlink:href="#a"/><use xlink:href="#b" x="-.004" y="19.514"/><use xlink:href="#21" y="2.171"/><use xlink:href="#22" y="4.342"/><use xlink:href="#24" y="8.684"/><use xlink:href="#25" y="10.855"/><use xlink:href="#26" y="13.026"/><use xlink:href="#27" y="15.197"/></svg><svg x="3100"><use xlink:href="#a"/><use xlink:href="#b" x="7.996" y="19.514"/><use xlink:href="#21" y="2.171"/><use xlink:href="#22" y="4.342"/><use xlink:href="#24" y="8.684"/><use xlink:href="#25" y="10.855"/><use xlink:href="#26" y="13.026"/><use xlink:href="#27" y="15.197"/><use xlink:href="#28" y="19.539"/></svg><svg x="3200"><use xlink:href="#a"/><use xlink:href="#b" x="7.996" y="19.514"/><use xlink:href="#21" y="2.171"/><use xlink:href="#22" y="4.342"/><use xlink:href="#24" y="8.684"/><use xlink:href="#25" y="10.855"/><use xlink:href="#26" y="13.026"/><use xlink:href="#27" y="15.197"/><use xlink:href="#28" y="19.539"/></svg><svg x="3300"><use xlink:href="#a"/><use xlink:href="#b" x="7.996" y="19.514"/><use xlink:href="#21" y="2.171"/><use xlink:href="#22" y="4.342"/><use xlink:href="#24" y="8.684"/><use xlink:href="#25" y="10.855"/><use xlink:href="#26" y="13.026"/><use xlink:href="#27" y="15.197"/><use xlink:href="#28" y="19.539"/></svg><svg x="3400"><use xlink:href="#a"/><use xlink:href="#b" x="8.996" y="19.514"/><use xlink:href="#21" y="2.171"/><use xlink:href="#22" y="4.342"/><use xlink:href="#24" y="8.684"/><use xlink:href="#25" y="10.855"/><use xlink:href="#26" y="13.026"/><use xlink:href="#27" y="15.197"/><text y="21.209" class="g">In</text><text x="3.006" y="21.209" class="g">[</text><text x="4.008" y="21.209" class="h">4</text><text x="5.01" y="21.209" class="g">]:</text><text x="8.016" y="21.209" class="f">m</text><text x="9.018" y="21.209" class="v">anifest</text><text x="17.034" y="21.209" class="v">=</text><text x="19.038" y="21.209" class="v">hello_world.manifest()</text></svg><svg x="3500"><use xlink:href="#a"/><use xlink:href="#b" x="9.996" y="19.514"/><use xlink:href="#21" y="2.171"/><use xlink:href="#22" y="4.342"/><use xlink:href="#24" y="8.684"/><use xlink:href="#25" y="10.855"/><use xlink:href="#26" y="13.026"/><use xlink:href="#27" y="15.197"/><text y="21.209" class="g">In</text><text x="3.006" y="21.209" class="g">[</text><text x="4.008" y="21.209" class="h">4</text><text x="5.01" y="21.209" class="g">]:</text><text x="8.016" y="21.209" class="f">ma</text><text x="10.02" y="21.209" class="v">nifest</text><text x="17.034" y="21.209" class="v">=</text><text x="19.038" y="21.209" class="v">hello_world.manifest()</text></svg><svg x="3600"><use xlink:href="#a"/><use xlink:href="#b" x="40.996" y="19.514"/><use xlink:href="#21" y="2.171"/><use xlink:href="#22" y="4.342"/><use xlink:href="#24" y="8.684"/><use xlink:href="#25" y="10.855"/><use xlink:href="#26" y="13.026"/><use xlink:href="#27" y="15.197"/><text y="21.209" class="g">In</text><text x="3.006" y="21.209" class="g">[</text><text x="4.008" y="21.209" class="h">4</text><text x="5.01" y="21.209" class="g">]:</text><text x="8.016" y="21.209" class="f">manifest</text><text x="17.034" y="21.209" class="f">=</text><text x="19.038" y="21.209" class="f">hello_world.manifest</text><path class="w" d="M39.078 19.539h2v2.171h-2z"/><text x="39.078" y="21.209" class="x">()</text></svg><svg x="3700"><use xlink:href="#a"/><use xlink:href="#b" x="-.004" y="21.685"/><use xlink:href="#21" y="2.171"/><use xlink:href="#22" y="4.342"/><use xlink:href="#24" y="8.684"/><use xlink:href="#25" y="10.855"/><use xlink:href="#26" y="13.026"/><use xlink:href="#27" y="15.197"/><use xlink:href="#29" y="19.539"/></svg><svg x="3800"><use xlink:href="#a"/><use xlink:href="#b" x="-.004" y="23.856"/><use xlink:href="#21" y="2.171"/><use xlink:href="#22" y="4.342"/><use xlink:href="#24" y="8.684"/><use xlink:href="#25" y="10.855"/><use xlink:href="#26" y="13.026"/><use xlink:href="#27" y="15.197"/><use xlink:href="#29" y="19.539"/></svg><svg x="3900"><use xlink:href="#a"/><use xlink:href="#b" x="7.996" y="23.856"/><use xlink:href="#21" y="2.171"/><use xlink:href="#22" y="4.342"/><use xlink:href="#24" y="8.684"/><use xlink:href="#25" y="10.855"/><use xlink:href="#26" y="13.026"/><use xlink:href="#27" y="15.197"/><use xlink:href="#29" y="19.539"/><use xlink:href="#30" y="23.881"/></svg><svg x="4000"><use xlink:href="#a"/><use xlink:href="#b" x="7.996" y="23.856"/><use xlink:href="#21" y="2.171"/><use xlink:href="#22" y="4.342"/><use xlink:href="#24" y="8.684"/><use xlink:href="#25" y="10.855"/><use xlink:href="#26" y="13.026"/><use xlink:href="#27" y="15.197"/><use xlink:href="#29" y="19.539"/><use xlink:href="#30" y="23.881"/></svg><svg x="4100"><use xlink:href="#a"/><use xlink:href="#b" x="7.996" y="23.856"/><use xlink:href="#21" y="2.171"/><use xlink:href="#22" y="4.342"/><use xlink:href="#24" y="8.684"/><use xlink:href="#25" y="10.855"/><use xlink:href="#26" y="13.026"/><use xlink:href="#27" y="15.197"/><use xlink:href="#29" y="19.539"/><use xlink:href="#30" y="23.881"/></svg><svg x="4200"><use xlink:href="#a"/><use xlink:href="#b" x="8.996" y="23.856"/><use xlink:href="#21" y="2.171"/><use xlink:href="#22" y="4.342"/><use xlink:href="#24" y="8.684"/><use xlink:href="#25" y="10.855"/><use xlink:href="#26" y="13.026"/><use xlink:href="#27" y="15.197"/><use xlink:href="#29" y="19.539"/><text y="25.551" class="g">In</text><text x="3.006" y="25.551" class="g">[</text><text x="4.008" y="25.551" class="h">5</text><text x="5.01" y="25.551" class="g">]:</text><text x="8.016" y="25.551" class="f">p</text><text x="9.018" y="25.551" class="v">rint(manifest)</text></svg><svg x="4300"><use xlink:href="#a"/><use xlink:href="#b" x="22.996" y="23.856"/><use xlink:href="#21" y="2.171"/><use xlink:href="#22" y="4.342"/><use xlink:href="#24" y="8.684"/><use xlink:href="#25" y="10.855"/><use xlink:href="#26" y="13.026"/><use xlink:href="#27" y="15.197"/><use xlink:href="#29" y="19.539"/><text y="25.551" class="g">In</text><text x="3.006" y="25.551" class="g">[</text><text x="4.008" y="25.551" class="h">5</text><text x="5.01" y="25.551" class="g">]:</text><text x="8.016" y="25.551" class="m">print</text><path class="w" d="M13.026 23.881h1v2.171h-1z"/><text x="13.026" y="25.551" class="x">(</text><text x="14.028" y="25.551" class="f">manifest</text><path class="w" d="M22.044 23.881h1v2.171h-1z"/><text x="22.044" y="25.551" class="x">)</text></svg><svg x="4400"><use xlink:href="#a"/><use xlink:href="#b" x="-.004" y="26.027"/><use xlink:href="#21" y="2.171"/><use xlink:href="#22" y="4.342"/><use xlink:href="#24" y="8.684"/><use xlink:href="#25" y="10.855"/><use xlink:href="#26" y="13.026"/><use xlink:href="#27" y="15.197"/><use xlink:href="#29" y="19.539"/><use xlink:href="#31" y="23.881"/></svg><svg x="4500"><use xlink:href="#a"/><use xlink:href="#b" x="-.004" y="43.395"/><use xlink:href="#29" y="2.171"/><use xlink:href="#31" y="6.513"/><use xlink:href="#32" y="8.684"/><use xlink:href="#33" y="10.855"/><use xlink:href="#34" y="13.026"/><use xlink:href="#35" y="15.197"/><use xlink:href="#36" y="17.368"/><use xlink:href="#37" y="19.539"/><use xlink:href="#38" y="21.71"/><use xlink:href="#39" y="23.881"/><use xlink:href="#40" y="26.052"/><use xlink:href="#41" y="28.223"/><use xlink:href="#42" y="30.394"/><use xlink:href="#43" y="32.565"/><use xlink:href="#44" y="34.736"/><use xlink:href="#45" y="36.907"/></svg><svg x="4600"><use xlink:href="#a"/><use xlink:href="#b" x="7.996" y="43.395"/><use xlink:href="#29" y="2.171"/><use xlink:href="#31" y="6.513"/><use xlink:href="#32" y="8.684"/><use xlink:href="#33" y="10.855"/><use xlink:href="#34" y="13.026"/><use xlink:href="#35" y="15.197"/><use xlink:href="#36" y="17.368"/><use xlink:href="#37" y="19.539"/><use xlink:href="#38" y="21.71"/><use xlink:href="#39" y="23.881"/><use xlink:href="#40" y="26.052"/><use xlink:href="#41" y="28.223"/><use xlink:href="#42" y="30.394"/><use xlink:href="#43" y="32.565"/><use xlink:href="#44" y="34.736"/><use xlink:href="#45" y="36.907"/><use xlink:href="#46" y="43.42"/></svg><svg x="4700"><use xlink:href="#a"/><use xlink:href="#b" x="7.996" y="43.395"/><use xlink:href="#29" y="2.171"/><use xlink:href="#31" y="6.513"/><use xlink:href="#32" y="8.684"/><use xlink:href="#33" y="10.855"/><use xlink:href="#34" y="13.026"/><use xlink:href="#35" y="15.197"/><use xlink:href="#36" y="17.368"/><use xlink:href="#37" y="19.539"/><use xlink:href="#38" y="21.71"/><use xlink:href="#39" y="23.881"/><use xlink:href="#40" y="26.052"/><use xlink:href="#41" y="28.223"/><use xlink:href="#42" y="30.394"/><use xlink:href="#43" y="32.565"/><use xlink:href="#44" y="34.736"/><use xlink:href="#45" y="36.907"/><use xlink:href="#46" y="43.42"/></svg><svg x="4800"><use xlink:href="#a"/><use xlink:href="#b" x="7.996" y="43.395"/><use xlink:href="#29" y="2.171"/><use xlink:href="#31" y="6.513"/><use xlink:href="#32" y="8.684"/><use xlink:href="#33" y="10.855"/><use xlink:href="#34" y="13.026"/><use xlink:href="#35" y="15.197"/><use xlink:href="#36" y="17.368"/><use xlink:href="#37" y="19.539"/><use xlink:href="#38" y="21.71"/><use xlink:href="#39" y="23.881"/><use xlink:href="#40" y="26.052"/><use xlink:href="#41" y="28.223"/><use xlink:href="#42" y="30.394"/><use xlink:href="#43" y="32.565"/><use xlink:href="#44" y="34.736"/><use xlink:href="#45" y="36.907"/><use xlink:href="#46" y="43.42"/></svg><svg x="4900"><use xlink:href="#a"/><use xlink:href="#b" x="8.996" y="43.395"/><use xlink:href="#29" y="2.171"/><use xlink:href="#31" y="6.513"/><use xlink:href="#32" y="8.684"/><use xlink:href="#33" y="10.855"/><use xlink:href="#34" y="13.026"/><use xlink:href="#35" y="15.197"/><use xlink:href="#36" y="17.368"/><use xlink:href="#37" y="19.539"/><use xlink:href="#38" y="21.71"/><use xlink:href="#39" y="23.881"/><use xlink:href="#40" y="26.052"/><use xlink:href="#41" y="28.223"/><use xlink:href="#42" y="30.394"/><use xlink:href="#43" y="32.565"/><use xlink:href="#44" y="34.736"/><use xlink:href="#45" y="36.907"/><text y="45.09" class="g">In</text><text x="3.006" y="45.09" class="g">[</text><text x="4.008" y="45.09" class="h">6</text><text x="5.01" y="45.09" class="g">]:</text><text x="8.016" y="45.09" class="f">!</text><text x="9.018" y="45.09" class="v">pip</text><text x="13.026" y="45.09" class="v">install</text><text x="21.042" y="45.09" class="v">--upgrade</text><text x="31.062" y="45.09" class="v">natun-labsdk</text></svg><svg x="5000"><use xlink:href="#a"/><use xlink:href="#b" x="9.996" y="43.395"/><use xlink:href="#29" y="2.171"/><use xlink:href="#31" y="6.513"/><use xlink:href="#32" y="8.684"/><use xlink:href="#33" y="10.855"/><use xlink:href="#34" y="13.026"/><use xlink:href="#35" y="15.197"/><use xlink:href="#36" y="17.368"/><use xlink:href="#37" y="19.539"/><use xlink:href="#38" y="21.71"/><use xlink:href="#39" y="23.881"/><use xlink:href="#40" y="26.052"/><use xlink:href="#41" y="28.223"/><use xlink:href="#42" y="30.394"/><use xlink:href="#43" y="32.565"/><use xlink:href="#44" y="34.736"/><use xlink:href="#45" y="36.907"/><text y="45.09" class="g">In</text><text x="3.006" y="45.09" class="g">[</text><text x="4.008" y="45.09" class="h">6</text><text x="5.01" y="45.09" class="g">]:</text><text x="8.016" y="45.09" class="f">!e</text><text x="10.02" y="45.09" class="v">cho</text><text x="14.028" y="45.09" class="v">&quot;$manifest&quot;</text><text x="26.052" y="45.09" class="v">|</text><text x="28.056" y="45.09" class="v">kubectl</text><text x="36.072" y="45.09" class="v">apply</text><text x="42.084" y="45.09" class="v">-f</text><text x="45.09" y="45.09" class="v">-</text></svg><svg x="5100"><use xlink:href="#a"/><use xlink:href="#b" x="45.996" y="43.395"/><use xlink:href="#29" y="2.171"/><use xlink:href="#31" y="6.513"/><use xlink:href="#32" y="8.684"/><use xlink:href="#33" y="10.855"/><use xlink:href="#34" y="13.026"/><use xlink:href="#35" y="15.197"/><use xlink:href="#36" y="17.368"/><use xlink:href="#37" y="19.539"/><use xlink:href="#38" y="21.71"/><use xlink:href="#39" y="23.881"/><use xlink:href="#40" y="26.052"/><use xlink:href="#41" y="28.223"/><use xlink:href="#42" y="30.394"/><use xlink:href="#43" y="32.565"/><use xlink:href="#44" y="34.736"/><use xlink:href="#45" y="36.907"/><use xlink:href="#47" y="43.42"/></svg><svg x="5200"><use xlink:href="#a"/><use xlink:href="#b" x="-.004" y="43.395"/><use xlink:href="#29"/><use xlink:href="#31" y="4.342"/><use xlink:href="#32" y="6.513"/><use xlink:href="#33" y="8.684"/><use xlink:href="#34" y="10.855"/><use xlink:href="#35" y="13.026"/><use xlink:href="#36" y="15.197"/><use xlink:href="#37" y="17.368"/><use xlink:href="#38" y="19.539"/><use xlink:href="#39" y="21.71"/><use xlink:href="#40" y="23.881"/><use xlink:href="#41" y="26.052"/><use xlink:href="#42" y="28.223"/><use xlink:href="#43" y="30.394"/><use xlink:href="#44" y="32.565"/><use xlink:href="#45" y="34.736"/><use xlink:href="#47" y="41.249"/></svg><svg x="5300"><use xlink:href="#a"/><use xlink:href="#b" x="-.004" y="43.395"/><use xlink:href="#29"/><use xlink:href="#31" y="4.342"/><use xlink:href="#32" y="6.513"/><use xlink:href="#33" y="8.684"/><use xlink:href="#34" y="10.855"/><use xlink:href="#35" y="13.026"/><use xlink:href="#36" y="15.197"/><use xlink:href="#37" y="17.368"/><use xlink:href="#38" y="19.539"/><use xlink:href="#39" y="21.71"/><use xlink:href="#40" y="23.881"/><use xlink:href="#41" y="26.052"/><use xlink:href="#42" y="28.223"/><use xlink:href="#43" y="30.394"/><use xlink:href="#44" y="32.565"/><use xlink:href="#45" y="34.736"/><use xlink:href="#47" y="41.249"/></svg><svg x="5400"><use xlink:href="#a"/><use xlink:href="#b" x="-.004" y="43.395"/><use xlink:href="#31" y="2.171"/><use xlink:href="#32" y="4.342"/><use xlink:href="#33" y="6.513"/><use xlink:href="#34" y="8.684"/><use xlink:href="#35" y="10.855"/><use xlink:href="#36" y="13.026"/><use xlink:href="#37" y="15.197"/><use xlink:href="#38" y="17.368"/><use xlink:href="#39" y="19.539"/><use xlink:href="#40" y="21.71"/><use xlink:href="#41" y="23.881"/><use xlink:href="#42" y="26.052"/><use xlink:href="#43" y="28.223"/><use xlink:href="#44" y="30.394"/><use xlink:href="#45" y="32.565"/><use xlink:href="#47" y="39.078"/><use xlink:href="#48" y="41.249"/></svg><svg x="5500"><use xlink:href="#a"/><use xlink:href="#b" x="-.004" y="43.395"/><use xlink:href="#31"/><use xlink:href="#32" y="2.171"/><use xlink:href="#33" y="4.342"/><use xlink:href="#34" y="6.513"/><use xlink:href="#35" y="8.684"/><use xlink:href="#36" y="10.855"/><use xlink:href="#37" y="13.026"/><use xlink:href="#38" y="15.197"/><use xlink:href="#39" y="17.368"/><use xlink:href="#40" y="19.539"/><use xlink:href="#41" y="21.71"/><use xlink:href="#42" y="23.881"/><use xlink:href="#43" y="26.052"/><use xlink:href="#44" y="28.223"/><use xlink:href="#45" y="30.394"/><use xlink:href="#47" y="36.907"/><use xlink:href="#48" y="39.078"/></svg></svg></g></g></svg></svg>