<svg xmlns="http://www.w3.org/2000/svg" viewBox="1933.581 -501.039 1893.987 350" width="2525.316" height="466.667" xmlns:v="https://vecta.io/nano"><defs><clipPath id="A"><path d="M1933.581-501.039h1893.987v350H1933.581z"/></clipPath></defs><g clip-path="url(#A)"><path d="M2151.168-210.281c.9 2.525 4.055 9.322 12.315 9.334 0 .003 3.327.003 9.982 0h9.981c9.964 0 12.345-9.42 12.504-9.874 6.141-17.495 22.813-30.052 42.395-30.052 24.79 0 44.917 20.126 44.917 44.917s-20.127 44.917-44.917 44.917c-19.436 0-36.005-12.371-42.256-29.662-.176-.486-2.741-10.25-12.643-10.265 0-.002-3.327-.002-9.981 0h-9.982c-8.406 0-11.415 6.705-12.237 9.085a18.15 18.15 0 0 1-.248.724c-.012.046-.016.057-.019.065-6.14 17.495-22.813 30.053-42.394 30.053-19.484 0-36.088-12.433-42.296-29.795a23.61 23.61 0 0 1-.288-.798c-.9-2.525-4.055-9.322-12.315-9.334 0-.002-3.327-.002-9.981 0h-9.982c-9.964 0-12.344 9.42-12.504 9.874-6.141 17.495-22.813 30.053-42.395 30.053a44.73 44.73 0 0 1-16.955-3.316c-5.475-2.191-10.605-5.501-15.036-9.932-17.529-17.53-17.529-45.993 0-63.523 13.077-13.076 32.238-16.398 48.405-9.965a44.9 44.9 0 0 1 3.891 1.749c2.838 1.201 9.29 3.048 14.725-2.341l6.742-6.742c7.046-7.046 2.069-15.389 1.86-15.823-8.028-16.713-5.119-37.382 8.728-51.228.019-.02.039-.039.059-.059l.058-.059c13.743-13.743 34.207-16.712 50.853-8.905.467.218 9.186 5.309 16.198-1.682.002.002 2.119-2.114 6.349-6.348v-.001l7.058-7.058c7.046-7.046 2.068-15.388 1.859-15.822-8.028-16.713-5.118-37.382 8.728-51.229.02-.019.039-.039.059-.058l.059-.059c13.742-13.744 34.207-16.712 50.853-8.906.466.219 9.161 5.295 16.168-1.652l6.742-6.741c4.888-4.889 3.989-10.402 2.91-13.465-1.189-2.121-2.211-4.348-3.048-6.663-.176-.486-2.741-10.25-12.643-10.265 0-.002-3.327-.002-9.981 0v-9.981h9.981c9.964 0 12.345-9.42 12.504-9.874 6.141-17.495 22.813-30.052 42.395-30.052a44.74 44.74 0 0 1 16.955 3.315c5.476 2.191 10.605 5.502 15.037 9.933 17.528 17.529 17.528 45.993 0 63.522-13.078 13.077-32.238 16.398-48.406 9.965a44.3 44.3 0 0 1-3.891-1.749c-2.838-1.201-9.289-3.048-14.725 2.342l-6.742 6.741c-7.046 7.046-2.068 15.389-1.86 15.823 8.029 16.713 5.119 37.382-8.728 51.228-.019.02-.039.04-.058.059l-.059.059c-13.743 13.744-34.207 16.712-50.853 8.905-.467-.218-9.186-5.309-16.198 1.682-.002-.002-2.118 2.115-6.349 6.349h0l-7.058 7.058c-7.046 7.046-2.068 15.388-1.859 15.823 8.028 16.713 5.118 37.382-8.728 51.228l-.059.059-.059.058c-13.742 13.744-34.206 16.713-50.853 8.906-.466-.219-9.161-5.295-16.168 1.652l-6.741 6.742c-4.889 4.888-3.989 10.401-2.911 13.464 1.189 2.121 2.211 4.348 3.048 6.663.176.486 2.741 10.25 12.643 10.265 0 .003 3.327.003 9.982 0h9.981c8.407 0 11.415-6.705 12.237-9.084.078-.244.16-.485.248-.725 6.12-17.53 22.808-30.117 42.414-30.117 19.436 0 36.004 12.371 42.256 29.661a2.62 2.62 0 0 1 .04.134c.101.262.194.53.287.797h0zm-85.167-231.517c-.9-2.525-4.055-9.322-12.315-9.334 0-.002-3.327-.002-9.981 0v-9.981h9.981c8.407 0 11.415-6.705 12.237-9.084.078-.244.16-.485.248-.725.012-.046.016-.057.019-.065 6.141-17.495 22.813-30.052 42.395-30.052 19.484 0 36.087 12.433 42.295 29.795.102.262.195.53.288.797.9 2.525 4.055 9.322 12.315 9.334 0 .003 3.327.003 9.982 0v9.981h-9.982c-8.406 0-11.415 6.705-12.237 9.085a18.15 18.15 0 0 1-.248.724c-6.119 17.53-22.808 30.118-42.413 30.118-19.436 0-36.005-12.371-42.256-29.662a2.12 2.12 0 0 1-.04-.133 23.61 23.61 0 0 1-.288-.798h0zm-44.921-29.58c.176.486 2.741 10.25 12.643 10.265 0 .003 3.327.003 9.982 0v9.981h-9.982c-9.964 0-12.344 9.42-12.504 9.874-6.141 17.495-22.813 30.053-42.395 30.053-24.79 0-44.917-20.127-44.917-44.917s20.127-44.917 44.917-44.917c19.436 0 36.005 12.371 42.256 29.661h0z" fill="#aa3ea3"/><path d="M2122.343-248.752c-13.744-13.743-16.712-34.207-8.906-50.854.219-.467 5.309-9.186-1.682-16.198.002-.001-2.114-2.118-6.348-6.348h0l-7.058-7.058c-7.046-7.046-15.389-2.068-15.823-1.86-16.713 8.029-37.382 5.119-51.228-8.728-.02-.019-.039-.039-.059-.058l-.059-.059c-13.743-13.743-16.712-34.207-8.905-50.853.218-.466 5.295-9.161-1.652-16.168l-6.742-6.742c-4.888-4.888-10.402-3.989-13.464-2.91-2.121 1.189-4.348 2.211-6.663 3.048-.486.176-10.25 2.741-10.265 12.642a4151.96 4151.96 0 0 0 0 9.982v9.982c0 8.406 6.705 11.415 9.084 12.237.244.078.485.16.725.248 17.529 6.119 30.117 22.807 30.117 42.413 0 19.436-12.371 36.005-29.661 42.256a2.62 2.62 0 0 1-.134.04c-.262.102-.53.195-.797.288-2.526.9-9.322 4.055-9.334 12.315a4150.85 4150.85 0 0 0 0 9.981v9.982c0 9.963 9.42 12.344 9.874 12.504 17.494 6.14 30.052 22.813 30.052 42.394 0 24.791-20.127 44.917-44.917 44.917s-44.917-20.126-44.917-44.917c0-19.436 12.371-36.004 29.661-42.255.486-.176 10.25-2.741 10.265-12.643.003 0 .003-3.327 0-9.982v-9.981c0-8.407-6.704-11.415-9.084-12.238-.243-.077-.485-.159-.725-.247a.64.64 0 0 1-.064-.019c-17.495-6.141-30.053-22.813-30.053-42.395 0-19.484 12.433-36.087 29.795-42.296.263-.102.53-.194.798-.287 2.525-.9 9.321-4.056 9.333-12.315a4151.96 4151.96 0 0 0 0-9.982v-9.982c0-9.963-9.419-12.344-9.873-12.503-17.495-6.141-30.053-22.813-30.053-42.395 0-5.998 1.178-11.723 3.316-16.955 2.19-5.476 5.501-10.606 9.932-15.037 17.53-17.528 45.993-17.528 63.523 0 13.076 13.077 16.398 32.238 9.965 48.406a44.9 44.9 0 0 1-1.749 3.891c-1.201 2.837-3.048 9.289 2.341 14.724l6.742 6.743c7.046 7.046 15.388 2.068 15.823 1.859 16.713-8.028 37.382-5.118 51.228 8.728l.059.059c.019.02.039.039.058.059 13.744 13.742 16.713 34.207 8.906 50.853-.219.467-5.309 9.186 1.682 16.198-.002.002 2.114 2.118 6.348 6.349v-.001l7.058 7.058c7.046 7.046 15.389 2.069 15.823 1.86 16.713-8.028 37.382-5.119 51.228 8.728a1.64 1.64 0 0 1 .059.059c.02.019.039.039.059.058 13.744 13.743 16.712 34.207 8.905 50.853-.218.467-5.295 9.161 1.652 16.169l6.742 6.741c4.889 4.889 10.402 3.989 13.465 2.911 2.12-1.19 4.347-2.211 6.662-3.048.486-.176 10.25-2.741 10.265-12.643.003 0 .003-3.327 0-9.982v-9.981c0-8.407-6.704-11.415-9.084-12.238-.243-.077-.485-.159-.725-.247-17.529-6.12-30.117-22.808-30.117-42.414 0-19.436 12.371-36.004 29.661-42.256a2.62 2.62 0 0 1 .134-.04c.263-.102.53-.194.798-.287 2.525-.9 9.321-4.056 9.333-12.315a4151.96 4151.96 0 0 0 0-9.982v-9.982c0-9.963-9.419-12.344-9.873-12.503-17.495-6.141-30.053-22.813-30.053-42.395 0-24.79 20.127-44.917 44.917-44.917s44.917 20.127 44.917 44.917c0 19.436-12.371 36.004-29.661 42.256-.486.176-10.25 2.741-10.265 12.642a4151.96 4151.96 0 0 0 0 9.982v9.982c0 8.406 6.704 11.415 9.084 12.237.244.078.485.16.725.248a.84.84 0 0 1 .065.018c17.494 6.141 30.052 22.813 30.052 42.395 0 19.484-12.433 36.088-29.795 42.296-.262.102-.53.195-.797.288-2.526.9-9.322 4.055-9.334 12.315a4150.85 4150.85 0 0 0 0 9.981v9.982c0 9.963 9.419 12.344 9.874 12.504 17.494 6.14 30.052 22.813 30.052 42.394a44.75 44.75 0 0 1-3.315 16.956c-2.191 5.475-5.502 10.605-9.933 15.036-17.529 17.529-45.993 17.529-63.523 0-13.076-13.077-16.397-32.238-9.965-48.405a44.9 44.9 0 0 1 1.749-3.891c1.202-2.838 3.049-9.29-2.341-14.725l-6.742-6.743c-7.046-7.046-15.388-2.068-15.822-1.859-16.713 8.028-37.382 5.118-51.229-8.728-.019-.02-.039-.039-.058-.059s-.04-.039-.059-.058h0z" fill="#784aae"/><linearGradient id="B" x1="-.02" y1=".083" x2="1.035" y2="1.032" gradientTransform="matrix(1453.987,0,0,350,2373.581,-501.039)" gradientUnits="userSpaceOnUse"><stop offset="2.5%" stop-color="#794aaf"/><stop offset="50.416666666666664%" stop-color="#8747ac"/><stop offset="77.91666666666667%" stop-color="#aa3ea3"/></linearGradient><path d="M2663.581-501.039h-47.036v250.556l-223.982-250.556h-18.982l.509 349.72h45.556l-.509-251.016L2644.6-151.039h18.981v-350zm207.317 85.836c-72.13 0-125.278 43.978-125.278 131.293 0 79.722 53.148 132.871 121.481 132.871 37.964 0 72.13-22.778 87.316-53.149l-.916 52.869h45.556l.915-265.462h-41.759v34.167c-22.778-26.574-56.945-32.589-87.315-32.589zm7.592 32.589c30.371 0 53.149 15.185 75.927 41.759v49.352c0 56.945-34.167 94.908-83.519 94.908s-83.519-41.76-83.519-91.112c3.796-45.555 37.963-94.907 91.111-94.907zm280.927-33.148v-76.945h-18.981c-18.982 53.148-37.963 87.315-72.13 102.5v11.389h49.352v155.649c0 45.555 22.778 72.13 68.334 72.13 26.574 0 37.963-7.593 53.148-18.982v-34.167c-11.389 7.593-22.778 11.389-45.556 11.389s-34.167-11.389-34.167-34.167v-151.852h75.927v-36.944h-75.927zm364.446 0h-45.556v153.89c0 45.556-30.37 68.334-64.537 68.334s-64.537-22.778-64.537-68.334v-153.89h-45.556v153.89c0 68.334 49.352 110.093 110.093 110.093s110.093-41.759 110.093-110.093v-153.89zm208.797.559c-34.167 0-68.333 20.46-83.519 39.442v-40.001h-41.759l-1.751 264.443h41.76l1.75-175.09c18.982-26.574 49.352-49.352 75.927-49.352 41.759 0 60.741 22.778 60.741 68.333v155.649h41.759V-315.02c0-68.334-41.759-100.183-94.908-100.183z" fill="url(#B)"/></g></svg>