<svg xmlns:xlink="http://www.w3.org/1999/xlink" xmlns="http://www.w3.org/2000/svg" viewBox="0 0 3708.54 1831.6">
    <defs>
        <linearGradient id="A" x1="326.66" y1="1514.96" x2="470.85" y2="697.24" gradientUnits="userSpaceOnUse">
            <stop offset=".22" stop-color="#6f4d9a"/>
            <stop offset=".98" stop-color="#9e4694"/>
        </linearGradient>
        <linearGradient id="B" x1="1118.06" y1="1499.83" x2="1213.88" y2="956.42" xlink:href="#A"/>
        <linearGradient id="C" x1="3432.4" y1="1526.85" x2="3529.57" y2="975.75" xlink:href="#A"/>
        <linearGradient id="D" x1="2896.72" y1="1496.12" x2="2986.95" y2="984.4" xlink:href="#A"/>
        <linearGradient id="E" x1="2320.63" y1="1475.23" x2="2430.77" y2="850.56" xlink:href="#A"/>
        <linearGradient id="F" x1="1734.32" y1="1858.18" x2="1886.38" y2="995.78" xlink:href="#A"/>
        <linearGradient id="G" x1="769.47" y1="681.47" x2="1502.9" y2="108.45" gradientUnits="userSpaceOnUse">
            <stop offset="0" stop-color="#6f4d9a"/>
            <stop offset=".66" stop-color="#9e4694"/>
        </linearGradient>
    </defs>
    <path
        d="M0 574.06s0 103.62 481.75 103.62c196.7 0 282.09 99.12 282.09 260.32 0 94.13-18.53 176.21-99.71 213.86 49.42 29.42 82.05 92.95 98.52 200.03l8.78 55.77s16.9 93.66 50.22 93.66H654.57c-28.25 0-49.75-93.66-49.75-93.66l-6.89-45.18c-17.65-107.07-65.57-155.31-146.76-155.31H314.68v294.15H151.12l2.25-692.86c72.65 39.76 161.3 52.64 161.3 52.64v217.8h147.08c109.43 0 136.19-58.55 136.19-138.56s-26.76-122.65-136.19-122.65H314.67S0 762.3 0 574.06z"
        fill="url(#A)"/>
    <path
        d="M1349.16 976.66l-9.06 50.33c-32.21-37.24-89.58-62.41-157.03-62.41-132.87 0-267.75 101.66-296.94 268.76-29.19 164.07 66.43 268.76 201.32 268.76 79.52 0 139.99-46.6 186.29-96.93-.26.08-17.18 96.93-17.18 96.93h140.01c10.67-95.96 20.04-166.76 28.09-212.39l55.36-313.05h-130.86zm-59.39 337.2c-41.27 43.28-94.62 79.52-155.01 79.52-78.51 0-137.9-59.39-120.79-160.05 20.13-100.66 99.65-160.04 179.17-160.04 48.32 0 97.64 23.15 128.84 58.38l-32.21 182.19z"
        fill="url(#B)"/>
    <path
        d="M3708.54,1011.33c0-22.18-42.86-43.58-80.12-43.58-77.51,0-133.73,34.57-182.05,93.96l13.66-85.04h-130.86l-76.63,530.14c81.11-40.15,115.14-48.07,134.37-123.16,3.1-12.1,33.38-180.75,33.38-180.75,37.09-93.87,132.86-125.58,199.29-125.58s88.96,19.09,88.96,19.09v-85.08Z"
        fill="url(#C)"/>
    <path
        d="M2990.36,964.58c-155.01,0-298.95,111.73-326.13,268.76-27.18,156.02,76.5,268.76,231.51,268.76s297.94-112.74,326.13-268.76c27.18-157.03-76.5-268.76-231.51-268.76Zm103.68,268.76c-16.11,89.59-96.63,156.02-179.17,156.02s-138.91-66.43-122.8-156.02c16.1-89.58,97.64-156.02,178.16-156.02s139.91,66.43,123.81,156.02Z"
        fill="url(#D)"/>
    <path
        d="M2461.29 825.27h-14.09c-51.94 115.57-135.36 180.9-260.26 215.2-.65 0-4.07 13.66-10.25 40.99l110.15.03-32.9 185.07c-21.14 118.78 9.06 235.54 169.11 235.54 36.24 0 78.51-5.03 108.71-14.09l19.12-108.71c-26.17 7.04-55.36 11.07-81.53 11.07-73.48 0-97.64-51.34-85.56-122.8l33.22-186.22h172.12l18.12-104.69h-172.12l26.17-151.4z"
        fill="url(#E)"/>
    <path
        d="M1929.53 964.58c-77.51 0-149.98 37.24-198.3 96.63l15.1-84.55h-130.86l-94.14 594.15-41.32 260.79c100.22-89.35 138.58-173.9 157.82-248.98l26.96-142.93c33.22 37.24 89.58 62.41 156.02 62.41 135.89 0 268.75-103.68 297.94-268.76 27.18-155.01-53.35-268.76-189.24-268.76zm61.4 268.76c-20.13 99.65-99.65 160.05-180.18 160.05-47.31 0-96.63-22.14-127.84-56.37l31.2-178.16c39.26-49.32 93.61-85.56 160.05-85.56 88.58 0 130.85 63.41 116.76 160.04z"
        fill="url(#F)"/>
    <path
        d="M1006.85 346.16c-5.01.31-6.48-6.4-13.85-9.23-11.24-4.32-24.3 4.99-30.77 9.23-33.06 21.67-39.54 10.86-61.75 27.83-37.2 28.43-55.98 77.31-63.31 89.3-5.08 8.31-13.56-11.81-24.17-6.36-8.47 4.35-8.77 11.22-16.92 18.46-13.03 11.57-32.04 6.87-32.31 10.77-.11 1.62 2.93 3.04 4.6 3.82 11.28 5.27 22.91-1.32 24.42 1.24 1 1.68-2.7 6.69-9.73 12-21.33 16.14-37.92 8.36-49.85 22.05-5.76 6.6-2.73 9.36-11.33 20.66-3.23 4.25-12.77 35.84-35.11 45.81-16.54 7.38-20.55 77.59-24.03 78.4-21.42 5.01-18.27 6.26-41-14.36-9.91-8.99-52.77-9.22-66.9-10.79-1.56-.17 56.21-62.53 61.22-81.31 7.3-27.35 44.91-38.32 56.56-39.15 8.35-.6-5.64-17.1-5.39-17.92 3.29-10.97 24.44-18.14 35.99-21.33 24.34-6.73 26.06-16.55 51.32-37.32 48.15-39.61 88.64-47.98 100.63-53.32 5.93-2.64-19.68-6.41-19.99-12.66-.29-5.91 16.32-6.86 34.66-19.33 20.45-13.91 18.53-21.05 37.32-31.32 5.27-2.88 18.23-6.5 35.99-10 31.96-6.3 39.99-14 50.65-19.33 7.2-3.6 6-15.33 6-15.33s24.66-11.33 53.71-18.2c21.64-5.12 40.92-28.45 49.59-34.45 5.98-4.14-13.9-8.84-13.33-13.33.83-6.53 27.58-1.01 49.32-16.66 13.41-9.65 8.59-15.61 22.66-24.66 16.55-10.64 29.36-6.36 38.65-18.66 4.91-6.5 3.19-10.17 6.66-17.33 8.15-16.8 22.66-9.33 47.32-25.99s108.63-50.65 122.63-64.65 3.47-6.15 8-12C1415 29.41 1456.1-.02 1456.1-.02l-98.46 81.54s-45.08 31.86-81.54 36.92c-4.64 7.16-7.62 15.53-18.46 29.23-5.02 6.34-14.23 17.99-29.23 29.23-17.28 12.96-30.05 16.24-29.23 21.54.9 5.83 17.13 6.85 16.92 9.23-.26 2.91-24.39-.49-49.23 6.15-30.01 8.03-55.09 29.14-52.31 36.92 2.14 5.98 15.4 3.65 21.54 6.15 13.61 5.56-129.86 55.39-123.08 69.23m-249 446.15c-8.73 12.66 39.18-40.66 48.32-63.17 7.34-18.06 10.6-32.95 11.6-38.13a3.21 3.21 0 0 1 2.27-2.48c8.86-2.53 46.2-14.6 63.49-42.38 18.37-29.52 45.31-78.64 48.84-85.09a3.19 3.19 0 0 1 1.07-1.15l35.64-23.1c1.01-.66 2.31-.69 3.35-.08l9.58 5.54c1.23.71 2.79.53 3.82-.46l60.84-58.17c.87-.83 2.13-1.11 3.26-.71l15.82 5.45a3.2 3.2 0 0 1 2.08 3.75l-3.47 15.12c-.82 3.58 4.05 5.51 5.89 2.33 9.48-16.35 24.79-38.91 46.04-58.48 36.95-34.03 104.71-81.76 110.69-85.96a3.12 3.12 0 0 0 .73-.72l18.83-25.56c.33-.45.52-.98.58-1.54.38-3.63 4.54-19.25 46.38-36.48 47.82-19.69 40.08-13.36 40.08-13.36s-33.76 0-14.06-18.99c19.17-18.48 68.43-52.29 71.04-54.08.07-.05.14-.1.21-.16l69.47-56.59c3.04-2.47-.16-7.2-3.58-5.29l-59.79 33.84-32 15.66a3.14 3.14 0 0 0-1.52 1.59l-6.96 15.82a3.26 3.26 0 0 1-.88 1.17l-32.73 27.28c-.29.24-.62.43-.98.56-7.16 2.53-83.65 29.71-86.49 37.08-2.43 6.3 3.64 2.34 5.98.65a3.21 3.21 0 0 1 2.01-.61l10.29.4c2.69.1 4.06 3.27 2.3 5.3l-9.98 11.57a2.9 2.9 0 0 1-.51.48c-2.79 2.08-25.87 19.35-48.95 38.47-14.1 11.68-22.43 16.9-26.98 19.23a3.21 3.21 0 0 1-4.67-2.86h0c0-2.78-3.29-4.25-5.35-2.38-21.39 19.32-100.24 89.87-114.2 92.9l-43.92 10.12c-1.11.26-2 1.1-2.33 2.19l-6.16 20.33c-.22.72-.68 1.34-1.31 1.75l-84.22 55.23c-.39.26-.83.42-1.29.49-5 .73-35.58 5.46-40.1 12.56-2.24 3.52-3.75 6.61-4.74 8.92-.89 2.11.67 4.44 2.96 4.44h18.96a3.22 3.22 0 0 1 3.15 3.84l-.3 1.52c-.21 1.05-.92 1.92-1.91 2.33-12.81 5.33-99.67 41.77-108.13 53.5-6.61 9.15-12.85.4-15.8-5.16a3.21 3.21 0 0 0-5.12-.76c-4.02 4.06-10.04 11.62-8.32 19.28 2.33 10.4-17.93 9.99-21 9.86-.27-.01-.53.01-.79.07-3.18.69 25.11 10.73 15.37 17.88-6.01 4.41-38.63 22.24-47.6 20.89-3.53-.53-29.71 23.05-26.58 24.76 6.75 3.71 27.89 20.36 44.11 19.44m623.8-270.97s-49.02 23.91-52.54 14.77 3.52 9.14 3.52 9.14-56.26 29.54-66.81 41.49c-10.55 11.96-63.99 39.38-63.99 39.38s15.47 21.8-16.17 24.61c-31.65 2.81-32.35 7.74-32.35 7.74l-29.54 15.47s9.14 9.14-35.16 29.54c-44.3 20.39-52.74 18.99-52.74 18.99s-4.92 21.1-16.17 27.43-32.35 21.8-40.79 20.39-22.5 17.09-22.5 17.09 13.36 6.82 3.52 13.85c-9.85 7.03-23.91 26.02-23.91 26.02l-11.25 7.03v28.8l-10.55 11.99s.7-29.03-6.33-28.58-50.63 16.59-50.63 16.59l4.96 11.99s-16.41 23.66-17.11 29.29 9.68 29.87 9.68 29.87l-6.51 56.49s34.78-74 55.88-88.06 44.53-31.09 51.56-31.8c7.03-.7 34.46-28.13 34.46-28.13l46.41-55.34s-28.83 20.88-34.46 15.26c-5.63-5.63 52.04-49.93 52.04-49.93s81.58-14.77 100.56-36.57c18.99-21.8 18.99-30.94 18.99-30.94s24.61.7 29.54-7.03 28.83-23.21 28.83-23.21l14.77-31.65s28.13-21.1 41.49-21.8 23.21-18.28 23.21-18.28-26.72 9.85-30.94 8.44 38.68-25.32 38.68-25.32l62.39-45.01z"
        fill="url(#G)"/>
</svg>
